<?xml version="1.0" encoding="UTF-8" standalone="no"?>
<!DOCTYPE svg PUBLIC "-//W3C//DTD SVG 1.1//EN" "http://www.w3.org/Graphics/SVG/1.1/DTD/svg11.dtd">
<svg version="1.1" xmlns="http://www.w3.org/2000/svg" xmlns:xlink="http://www.w3.org/1999/xlink" preserveAspectRatio="xMidYMid meet" viewBox="0 0 640 640" width="640" height="640"><defs><path d="M142.12 0C147.64 0 152.12 4.48 152.12 10C152.12 136 152.12 504 152.12 630C152.12 635.52 147.64 640 142.12 640C113.69 640 38.42 640 10 640C4.48 640 0 635.52 0 630C0 504 0 136 0 10C0 4.48 4.48 0 10 0C38.42 0 113.69 0 142.12 0Z" id="b1uofhfWlL"></path><path d="M630 0C635.52 0 640 4.48 640 10C640 136 640 504 640 630C640 635.52 635.52 640 630 640C601.58 640 526.31 640 497.88 640C492.36 640 487.88 635.52 487.88 630C487.88 504 487.88 136 487.88 10C487.88 4.48 492.36 0 497.88 0C526.31 0 601.58 0 630 0Z" id="c15kgJWNKL"></path><path d="M630 0C635.52 0 640 4.48 640 10C640 30.47 640 81.87 640 102.34C640 107.86 635.52 112.34 630 112.34C504 112.34 136 112.34 10 112.34C4.48 112.34 0 107.86 0 102.34C0 81.87 0 30.47 0 10C0 4.48 4.48 0 10 0C136 0 504 0 630 0Z" id="adHtTYpqE"></path></defs><g><g><g><use xlink:href="#b1uofhfWlL" opacity="1" fill="#000000" fill-opacity="1"></use></g><g><use xlink:href="#c15kgJWNKL" opacity="1" fill="#000000" fill-opacity="1"></use></g><g><use xlink:href="#adHtTYpqE" opacity="1" fill="#000000" fill-opacity="1"></use></g></g></g></svg>