<?xml version="1.0" encoding="UTF-8" standalone="no"?>
<!DOCTYPE svg PUBLIC "-//W3C//DTD SVG 1.1//EN" "http://www.w3.org/Graphics/SVG/1.1/DTD/svg11.dtd">
<svg version="1.1" xmlns="http://www.w3.org/2000/svg" xmlns:xlink="http://www.w3.org/1999/xlink" preserveAspectRatio="xMidYMid meet" viewBox="0 0 640 640" width="640" height="640"><defs><path d="M591.48 118.91C618.28 118.91 640 140.63 640 167.42C640 238.16 640 401.84 640 472.58C640 499.37 618.28 521.09 591.48 521.09C473.19 521.09 166.81 521.09 48.52 521.09C21.72 521.09 0 499.37 0 472.58C0 401.84 0 238.16 0 167.42C0 140.63 21.72 118.91 48.52 118.91C166.81 118.91 473.19 118.91 591.48 118.91Z" id="d3zQn4ZNfZ"></path><path d="M265.99 233.14L263.07 233.14L306.86 240.44L263.07 233.14L263.07 413.43L417.81 314.16L265.99 233.14Z" id="cH9OSkJTY"></path></defs><g><g><g><use xlink:href="#d3zQn4ZNfZ" opacity="1" fill="#000000" fill-opacity="1"></use></g><g><use xlink:href="#cH9OSkJTY" opacity="1" fill="#ffffff" fill-opacity="1"></use></g></g></g></svg>